<svg width="145" height="31" viewBox="0 0 145 31" fill="none" xmlns="http://www.w3.org/2000/svg">
<path d="M37.0518 15.5838H45.1272V12.6862H37.0518V10.7545H46.5522V7.3739H32.3015V21.3791H47.0272V17.5156H37.0518V15.5838Z" fill="#FF3E17"/>
<path d="M28.0263 7.3739H22.8011V21.3791H28.0263V7.3739Z" fill="#FF3E17"/>
<path d="M10.4505 16.0668C10.4505 16.5497 10.4505 17.0326 10.4505 17.0326V16.0668L6.1753 7.3739H0L7.12534 21.3791H13.3006L20.901 7.3739H14.7257L10.4505 16.0668Z" fill="#FF3E17"/>
<path d="M60.3279 21.8622H54.1526C54.1526 21.8622 53.2026 21.8622 53.2026 20.8964C53.2026 19.9305 54.1526 19.9305 54.1526 19.9305H64.6031V16.067H53.2026C53.2026 16.067 48.9274 16.067 48.9274 20.4134C48.9274 24.7599 53.2026 24.7599 53.2026 24.7599H59.8529C59.8529 24.7599 60.8029 24.7599 60.8029 25.7257C60.8029 26.6916 59.8529 26.6916 59.8529 26.6916H48.9274V30.5551H59.8529C59.8529 30.5551 64.6031 30.5551 64.6031 25.7257C65.0781 22.3452 60.3279 21.8622 60.3279 21.8622Z" fill="#FF3E17"/>
<path d="M99.7548 7.3739H94.5295L87.4042 21.3791H92.6294L94.0545 18.9644H99.7548L101.18 21.3791H106.405L99.7548 7.3739ZM95.0045 15.1009C95.0045 15.1009 96.4296 12.6862 96.4296 12.2033L97.8547 15.1009H95.0045Z" fill="#FF3E17"/>
<path d="M119.231 15.1009C119.231 15.1009 119.231 14.6179 118.756 14.135L113.055 7.3739H107.83V21.3791H113.055V13.6521C113.055 13.6521 113.055 14.135 113.53 14.6179L119.231 21.3791H124.456V7.3739H119.706L119.231 15.1009Z" fill="#FF3E17"/>
<path d="M139.182 7.3739V15.1009C139.182 15.1009 139.182 14.6179 138.707 14.135L133.481 7.3739H128.256V21.3791H133.481V13.6521C133.481 13.6521 133.481 14.135 133.956 14.6179L139.657 21.3791H144.882V7.3739H139.182Z" fill="#FF3E17"/>
<path d="M74.5786 7.3739L76.9537 13.1691L79.3288 7.3739H85.9791V21.3791H81.7039V13.6521L78.3787 21.3791H75.5286L72.2035 14.135V21.3791H67.9283V7.3739H74.5786Z" fill="#FF3E17"/>
<path d="M60.3279 5.44218H54.1526C54.1526 5.44218 53.2026 5.44218 53.2026 4.47631C53.2026 3.51044 54.1526 3.51044 54.1526 3.51044H64.6031V0.129883H53.2026C53.2026 0.129883 48.9274 0.129883 48.9274 4.47631C48.9274 8.82273 53.2026 8.82273 53.2026 8.82273H59.8529C59.8529 8.82273 60.8029 8.82273 60.8029 9.78861C60.8029 10.7545 59.8529 10.7545 59.8529 10.7545H48.9274V14.618H59.8529C59.8529 14.618 64.6031 14.618 64.6031 9.78861C65.0781 5.44218 60.3279 5.44218 60.3279 5.44218Z" fill="#FF3E17"/>
</svg>
